<svg xmlns="http://www.w3.org/2000/svg" viewBox="0 0 76.92 70.86"><title>Asset 1</title><g id="Layer_2" data-name="Layer 2"><g id="Layer_1-2" data-name="Layer 1"><polygon points="25.91 35.6 25.18 16.26 51.7 16.26 51.13 35.45 52.04 54.95 38.42 54.95 24.09 55.67 25.91 35.6" fill="#fff"/><path d="M51.09,16.83l-.53,18.58v.08l.91,18.89H38.35l-13.66.68,1.78-19.38v-.15l-.72-18.74H51.09m1.18-1.1H24.58l.76,19.91-1.9,20.67,15-.76H52.65L51.7,35.45l.57-19.76Z" fill="#464646"/><path d="M22.68,16.45C27.5,11.21,35,6.78,38.73.86,44.11,7.53,49,10.57,54.43,16.52Q38.56,16.52,22.68,16.45Z" fill="#464646" stroke="#464646" stroke-miterlimit="10"/><rect x="36.15" y="20.05" width="4.55" height="6.45" fill="#56b40c"/><path d="M40.51,20.24v6.07H36.34V20.24h4.17m.38-.38H36v6.83h4.93V19.86Z" fill="#464646"/><rect x="44.49" y="20.05" width="4.55" height="6.45" fill="#ffe694"/><path d="M48.85,20.24v6.07H44.68V20.24h4.17m.38-.38H44.3v6.83h4.93V19.86Z" fill="#464646"/><rect x="44.49" y="29.91" width="4.55" height="6.45" fill="#56b40c"/><path d="M48.85,30.1v6.07H44.68V30.1h4.17m.38-.38H44.3v6.83h4.93V29.72Z" fill="#464646"/><rect x="43.35" y="40.91" width="6.45" height="14.41" fill="#002595"/><path d="M49.61,41.1v14H43.54v-14h6.07m.38-.38H43.16V55.51H50V40.72Z" fill="#464646"/><rect x="36.53" y="29.91" width="4.55" height="6.45" fill="#9a0001"/><path d="M40.89,30.1v6.07H36.72V30.1h4.17m.38-.38H36.34v6.83h4.93V29.72Z" fill="#464646"/><rect x="28.18" y="29.91" width="4.55" height="6.45" fill="#002595"/><path d="M32.54,30.1v6.07H28.37V30.1h4.17m.38-.38H28v6.83h4.93V29.72Z" fill="#464646"/><rect x="28.18" y="40.91" width="4.55" height="6.45" fill="#ffe694"/><path d="M32.54,41.1v6.07H28.37V41.1h4.17m.38-.38H28v6.83h4.93V40.72Z" fill="#464646"/><rect x="36.15" y="40.91" width="4.55" height="6.45" fill="#ff0100"/><path d="M40.51,41.1v6.07H36.34V41.1h4.17m.38-.38H36v6.83h4.93V40.72Z" fill="#464646"/><rect x="28.18" y="20.05" width="4.55" height="6.45" fill="#ff0100"/><path d="M32.54,20.24v6.07H28.37V20.24h4.17m.38-.38H28v6.83h4.93V19.86Z" fill="#464646"/><rect y="59.57" width="76.92" height="10.73" fill="none"/><text transform="translate(1.16 66.46)" font-size="12.94" fill="#9a0001" font-family="FeltTipRoman-Bold, Felt Tip Roman" font-weight="700" style="isolation:isolate">das </text><text transform="translate(24.95 66.95)" font-size="11.22" fill="#9a0001" font-family="OpenSans-Bold, Open Sans" font-weight="700">BuntStift</text></g></g></svg>